# xmcd
#
# Track frame offsets:
#	150
#	11117
#	23305
#	40395
#	53225
#	70507
#	85340
#
# Disc length: 1332 seconds
# Revision: 0
# Processed by: cddbd v1.5.2PL0 Copyright (c) Steve Scherf et al.
# Submitted via: dBpowerAMP V12.0
#
DISCID=4c053207
DTITLE=Donna B, the Ebony Cowgirl - Mo`Betta Country
DYEAR=1900
DGENRE=Country
TTITLE0=Sweet Dreams of You
TTITLE1=Knock, Knock
TTITLE2=I Wish Home Was Like it Used to Be
TTITLE3=Little Brother
TTITLE4=Love is a Victim of Circumstance
TTITLE5=Steel Magnolia (The Girl Biker Song)
TTITLE6=Mine is Bigger Than Yours (The Belt Buckle Song)
EXTD=
EXTT0=
EXTT1=
EXTT2=
EXTT3=
EXTT4=
EXTT5=
EXTT6=
PLAYORDER=
